<svg width="59" height="64" viewBox="0 0 59 64" fill="none" xmlns="http://www.w3.org/2000/svg">
<path d="M58.9264 8.59942C58.9619 16.4642 58.9619 24.331 58.9264 32.1987C58.3161 46.8796 46.2252 55.5423 34.5046 61.838C33.4885 62.3841 31.4525 63.6213 30.4611 63.9165C30.2281 63.9857 30.0908 64.0034 29.8449 63.9995C28.9918 63.9847 26.6546 62.6033 25.7817 62.1343C13.5772 55.5758 1.40435 47.0287 0.866203 31.705C0.837568 24.1039 0.837568 16.5007 0.866203 8.89565C0.846455 8.26074 1.23846 7.74827 1.82992 7.53893C11.4513 6.08545 20.6797 3.12222 29.8469 0C37.2644 2.42214 44.6128 4.91536 52.2919 6.49425C53.9518 6.83589 56.4776 7.02844 57.9607 7.53992C58.4919 7.72259 58.8128 8.03561 58.9264 8.59843V8.59942Z" fill="#6B9C71"/>
<path d="M42.831 52.5396C42.599 52.6808 42.519 52.5919 42.3709 52.4063C40.5442 49.1596 37.9571 46.5845 34.8981 44.4477C34.7924 43.9974 37.2768 41.3047 37.7636 40.8801C39.4501 39.4138 40.7979 39.2756 42.8863 39.243C44.8641 38.9823 45.3657 38.3099 45.0073 36.2817C44.9905 35.9954 45.0389 35.711 45.186 35.4602C45.6392 34.8697 45.7794 34.4372 45.6205 33.6957C45.9888 33.2415 46.0065 33.1181 45.9759 32.572L45.7933 31.3624C45.8249 30.8253 46.2969 30.5577 47.2092 30.5567C48.1246 30.2891 48.9807 29.9712 48.2628 28.9067C47.7572 28.2708 47.2675 27.6221 46.7935 26.9576C46.8528 25.9336 46.9732 24.9146 47.1569 23.9015C47.46 22.7413 46.4667 22.2861 46.2356 23.5598C45.9503 23.8975 44.713 23.783 44.6321 23.3545C45.0201 20.7388 44.9194 17.9247 43.0561 15.8955C43.8402 11.2339 38.1793 9.42694 34.4547 9.20674C29.2402 8.89965 23.4924 10.6968 20.8866 15.544C18.7894 15.3406 16.7128 15.5479 15.8301 17.7459C15.1853 19.3525 15.9634 20.5324 17.2302 21.5268C17.7694 21.9494 18.3065 22.3591 18.8713 22.7482C23.5625 25.5663 27.5715 28.1829 29.6381 33.4992C31.5853 38.5074 31.1765 44.3243 29.1099 49.2258C30.3451 52.2463 31.1459 55.5087 31.5764 58.7445C31.5912 58.8571 31.5764 58.9736 31.5596 59.0921C31.5429 59.2106 31.5113 59.331 31.4757 59.4495C31.0936 59.6371 30.2079 60.1753 29.8544 60.1417C29.7675 60.1328 29.727 60.0518 29.6984 60.042L29.5078 59.4653C29.5246 55.8306 28.5994 52.3075 27.0333 49.0392C28.7406 44.6491 29.644 39.869 28.1047 35.3131C26.665 31.0514 23.4134 27.9153 19.7215 25.4912C16.4393 23.3624 13.3655 21.3312 10.7557 18.371C10.0794 17.6037 9.51159 16.7862 9.03862 15.936C6.7251 25.2197 5.81963 37.4696 13.8493 44.3252C16.461 46.5558 19.3492 47.7121 22.4744 48.8427C26.6818 50.153 27.4984 53.4776 27.7413 57.4569C27.8657 58.0444 27.8262 58.5431 27.6248 58.9548C16.5074 53.0876 5.13338 45.7195 4.42145 31.7505C4.07783 25.0044 4.68114 17.9829 4.41454 11.2073C4.40467 11.0068 4.43231 10.8182 4.6219 10.7234C13.2608 9.32721 21.6499 6.76683 29.8415 3.77002C38.1536 6.70759 46.6049 9.29857 55.3278 10.7609L55.3742 31.5569C54.9358 40.8574 49.9444 47.1897 42.83 52.5356L42.831 52.5396Z" fill="#FEFEFE"/>
<path d="M31.4766 59.4514C31.0046 55.954 30.2532 52.502 28.9231 49.2316C31.9713 41.8922 31.3226 32.8997 25.2045 27.3633C22.6412 25.0429 19.2287 23.5647 16.7631 21.3884C15.4617 20.2391 14.9946 19.0048 15.7895 17.3509C16.7098 15.4343 18.8722 15.065 20.7996 15.3987C23.5585 9.86723 31.1794 8.16492 36.8304 9.3202C39.3749 9.84057 43.0511 11.5093 43.3256 14.4755C43.3602 14.8517 43.1953 15.6614 43.2417 15.8352C43.2782 15.9714 43.5883 16.1956 43.7048 16.3674C45.2126 18.6069 45.1582 20.9145 44.8077 23.5094C45.0141 23.4264 45.9511 23.6032 45.9976 23.5667C46.2089 23.3998 46.0993 22.3847 46.985 22.6642C47.4658 22.8162 47.3918 23.2388 47.374 23.6565C47.3286 24.7022 46.9741 25.8446 46.982 26.913C47.9368 28.3991 50.2454 29.9711 47.2595 30.7491C46.9781 30.8222 46.0667 30.8864 46.0025 31.077C45.9057 31.3663 46.278 32.5601 46.1842 33.1308C46.1279 33.4744 45.8544 33.5801 45.8099 33.7509C45.7556 33.9582 45.9008 34.137 45.8988 34.3256C45.8889 35.0651 45.3202 35.3624 45.2254 35.9242C45.1395 36.4327 45.3705 37.0834 45.3024 37.6779C45.0467 39.9134 42.036 39.3199 40.4404 39.628C38.1979 40.0615 36.31 42.6564 35.0451 44.3923C37.2994 45.8665 39.2653 47.636 40.8985 49.7836C41.5058 50.5814 41.9412 51.4474 42.4942 52.2363C42.5831 52.3637 42.6956 52.4664 42.8339 52.5375C39.3809 55.1324 35.368 57.5447 31.4786 59.4494L31.4766 59.4514Z" fill="#A9ABA9"/>
<path d="M27.6252 58.9577C27.5116 56.5207 27.3428 53.0025 25.7007 51.0573C24.2373 49.3234 20.1879 48.338 18.0255 47.2785C8.00912 42.37 6.37692 32.7733 7.59243 22.4854C7.84323 20.3624 8.2461 17.7932 8.86225 15.7552C8.89582 15.6456 8.88595 15.4589 9.05973 15.611C9.13083 15.6732 9.70748 16.7021 9.86942 16.9252C13.2464 21.5533 16.9374 23.1776 21.3363 26.3916C29.3373 32.2371 30.8708 39.8867 27.2203 49.0341C28.9226 52.4674 29.7955 56.1899 29.6978 60.0438C29.0777 59.8394 28.2364 59.2805 27.6242 58.9577H27.6252Z" fill="#9FC186"/>
<path d="M55.5694 11.0679H55.4707V30.915H55.5694V11.0679Z" fill="#477E44"/>
<path d="M45.8922 25.0894C45.7667 25.352 45.7036 27.1639 45.5466 27.1639L44.5098 25.0894H45.8922Z" fill="#FDFDFD"/>
<path d="M26.2419 47.1077L24.8417 44.6095C21.6879 39.3604 16.4447 35.6023 14.0986 29.8289C15.1522 30.92 16.0843 32.1552 17.1083 33.2858C17.9624 34.2288 18.9281 35.1007 19.7773 36.0476C22.6467 39.2498 25.4214 42.7611 26.2429 47.1077H26.2419Z" fill="#FEFEFE"/>
</svg>
