<svg width="24" height="24" viewBox="0 0 24 24" fill="none" xmlns="http://www.w3.org/2000/svg">
<path fill-rule="evenodd" clip-rule="evenodd" d="M12.5922 23.2579L12.5812 23.2599L12.5102 23.2949L12.4902 23.2989L12.4762 23.2949L12.4052 23.2599C12.3945 23.2566 12.3865 23.2583 12.3812 23.2649L12.3772 23.2749L12.3602 23.7029L12.3652 23.7229L12.3752 23.7359L12.4792 23.8099L12.4942 23.8139L12.5062 23.8099L12.6102 23.7359L12.6222 23.7199L12.6262 23.7029L12.6092 23.2759C12.6065 23.2653 12.6009 23.2593 12.5922 23.2579ZM12.8572 23.1449L12.8442 23.1469L12.6592 23.2399L12.6492 23.2499L12.6462 23.2609L12.6642 23.6909L12.6692 23.7029L12.6772 23.7099L12.8782 23.8029C12.8909 23.8063 12.9005 23.8036 12.9072 23.7949L12.9112 23.7809L12.8772 23.1669C12.8739 23.1549 12.8672 23.1476 12.8572 23.1449ZM12.1422 23.1469C12.1378 23.1443 12.1325 23.1434 12.1275 23.1445C12.1225 23.1456 12.1181 23.1487 12.1152 23.1529L12.1092 23.1669L12.0752 23.7809C12.0759 23.7929 12.0815 23.8009 12.0922 23.8049L12.1072 23.8029L12.3082 23.7099L12.3182 23.7019L12.3222 23.6909L12.3392 23.2609L12.3362 23.2489L12.3262 23.2389L12.1422 23.1469Z" fill="#FF752B"/>
<path fill-rule="evenodd" clip-rule="evenodd" d="M10.2546 1.38696L11.5146 2.14296C13.1127 3.08764 14.3404 4.5496 14.9946 6.28696C15.2166 5.78696 15.4806 5.30196 15.7256 4.81196L16.7066 5.79296C18.9086 7.99496 20.9996 11.295 20.9996 14.5C20.9996 18.798 18.3496 21.523 14.1096 21.994L12.7196 22.148L13.0236 20.783C13.2606 19.715 13.3036 19.017 13.2536 18.528C13.1936 17.913 12.9016 17.43 12.5376 16.95C12.1896 16.49 11.8446 16.029 11.5686 15.52C10.4336 16.417 9.99358 17.227 9.85258 17.894C9.67258 18.748 9.92758 19.621 10.3936 20.553L11.2156 22.197L9.38958 21.994C6.81358 21.708 4.27558 19.987 3.27558 17.476C2.23058 14.849 2.96958 11.67 6.34558 8.74396C8.58558 6.80296 9.77158 4.28596 10.2546 1.38696ZM11.5866 4.68696C10.8246 6.82696 9.36158 8.77696 7.65458 10.256C4.74358 12.779 4.48258 15.1 5.13458 16.736C5.61958 17.956 6.66658 18.959 7.90758 19.528C7.76259 18.8541 7.7585 18.1575 7.89558 17.482C8.22158 15.936 9.33358 14.487 11.4696 13.152L12.5466 12.479L12.9486 13.684C13.3006 14.74 14.0306 15.487 14.6016 16.414C15.2296 17.434 15.3496 18.604 15.2216 19.772C17.8416 19.117 18.9996 17.13 18.9996 14.5C18.9996 12.278 17.6596 10.098 16.3296 8.39396C15.7816 9.62196 14.6266 10.054 13.4996 10.618V8.99996C13.4996 7.63096 12.9426 5.96196 11.5866 4.68796V4.68696Z" fill="#FF752B"/>
</svg>
