<svg width="180" height="180" viewBox="0 0 180 180" fill="none" xmlns="http://www.w3.org/2000/svg">
<path d="M171.355 24.1859C171.455 46.3056 171.455 68.4308 171.355 90.5589C169.638 131.849 135.633 156.213 102.668 173.919C99.8106 175.455 94.0842 178.935 91.296 179.765C90.6406 179.96 90.2546 180.01 89.5631 179.999C87.1637 179.957 80.5902 176.072 78.1353 174.753C43.8102 156.307 9.57393 132.268 8.0604 89.1703C7.97987 67.7921 7.97987 46.4083 8.0604 25.019C8.00486 23.2333 9.10737 21.792 10.7709 21.2033C37.831 17.1153 63.7859 8.78123 89.5687 0C110.43 6.81226 131.098 13.8245 152.695 18.2651C157.364 19.2259 164.467 19.7675 168.639 21.206C170.133 21.7198 171.035 22.6001 171.355 24.1831V24.1859Z" fill="#6B9C71"/>
<path d="M126.087 147.767C125.435 148.165 125.21 147.915 124.793 147.392C119.655 138.261 112.379 131.019 103.776 125.009C103.479 123.743 110.466 116.169 111.835 114.975C116.578 110.851 120.369 110.462 126.243 110.371C131.805 109.638 133.216 107.746 132.208 102.042C132.161 101.237 132.297 100.437 132.711 99.7317C133.985 98.071 134.38 96.8546 133.933 94.769C134.968 93.4915 135.018 93.1444 134.932 91.6086L134.419 88.2067C134.507 86.6959 135.835 85.9433 138.401 85.9405C140.975 85.1879 143.383 84.2937 141.364 81.3C139.942 79.5115 138.565 77.687 137.232 75.818C137.398 72.9381 137.737 70.0721 138.254 67.2228C139.106 63.9597 136.313 62.6794 135.663 66.2619C134.86 67.2117 131.38 66.8895 131.153 65.6843C132.244 58.3277 131.961 50.4129 126.72 44.706C128.925 31.5952 113.004 26.5131 102.529 25.8938C87.863 25.0301 71.6975 30.0845 64.3687 43.7173C58.4701 43.1452 52.6298 43.7284 50.1471 49.9103C48.3336 54.4286 50.522 57.7473 54.085 60.5438C55.6013 61.7324 57.1121 62.8849 58.7006 63.9791C71.8947 71.905 83.1697 79.2644 88.9822 94.2163C94.4587 108.302 93.309 124.662 87.4965 138.447C90.9706 146.943 93.2229 156.118 94.4337 165.219C94.4754 165.535 94.4337 165.863 94.3865 166.196C94.3393 166.53 94.2504 166.868 94.1504 167.202C93.0757 167.729 90.5846 169.243 89.5904 169.148C89.346 169.123 89.2322 168.896 89.1516 168.868L88.6157 167.246C88.6629 157.024 86.0607 147.115 81.6562 137.923C86.4578 125.575 88.9989 112.131 84.6694 99.3179C80.6203 87.3319 71.4753 78.5118 61.0917 71.6939C51.8606 65.7065 43.2154 59.994 35.8755 51.6682C33.9732 49.5104 32.3763 47.2109 31.0461 44.8198C24.5393 70.9302 21.9927 105.383 44.5762 124.665C51.9217 130.938 60.0447 134.19 68.8343 137.37C80.6676 141.055 82.9642 150.406 83.6474 161.597C83.9973 163.25 83.8862 164.652 83.3197 165.81C52.0522 149.309 20.0626 128.586 18.0603 89.2981C17.0939 70.3248 18.7907 50.5768 18.0409 31.5202C18.0131 30.9565 18.0909 30.4261 18.6241 30.1595C42.921 26.2326 66.5154 19.0316 89.5543 10.603C112.932 18.8649 136.701 26.1521 161.234 30.265L161.365 88.7537C160.132 114.911 146.094 132.721 126.084 147.756L126.087 147.767Z" fill="#FEFEFE"/>
<path d="M94.1516 167.207C92.8242 157.371 90.7108 147.662 86.97 138.464C95.543 117.822 93.7184 92.5307 76.5114 76.9594C69.302 70.4332 59.7043 66.2759 52.7699 60.1551C49.1096 56.9225 47.7961 53.4512 50.0316 48.7995C52.6199 43.4091 58.7018 42.3705 64.1227 43.3091C71.882 27.7518 93.3157 22.964 109.209 26.2132C116.366 27.6768 126.705 32.3701 127.477 40.7125C127.574 41.7706 127.11 44.0479 127.241 44.5366C127.344 44.9199 128.216 45.5503 128.543 46.0335C132.784 52.332 132.631 58.8221 131.645 66.1203C132.226 65.8871 134.861 66.3842 134.992 66.2814C135.586 65.8121 135.278 62.9572 137.769 63.7431C139.121 64.1708 138.913 65.3594 138.863 66.5341C138.735 69.4751 137.738 72.6882 137.761 75.6931C140.446 79.8726 146.939 84.2938 138.541 86.4821C137.75 86.6876 135.186 86.8682 135.006 87.4041C134.734 88.2178 135.781 91.5754 135.517 93.1805C135.358 94.147 134.589 94.4441 134.464 94.9246C134.311 95.5078 134.72 96.0104 134.714 96.5408C134.686 98.6209 133.087 99.4568 132.82 101.037C132.579 102.467 133.228 104.297 133.037 105.969C132.317 112.257 123.85 110.587 119.362 111.454C113.055 112.673 107.746 119.971 104.188 124.854C110.528 129 116.057 133.976 120.651 140.017C122.359 142.26 123.583 144.696 125.139 146.915C125.389 147.273 125.705 147.562 126.094 147.762C116.382 155.06 105.096 161.845 94.1572 167.202L94.1516 167.207Z" fill="#A9ABA9"/>
<path d="M83.3208 165.819C83.0015 158.965 82.5266 149.07 77.9082 143.599C73.7926 138.722 62.4036 135.951 56.3217 132.971C28.1507 119.166 23.5601 92.1752 26.9788 63.2405C27.6842 57.2697 28.8172 50.0436 30.5501 44.3117C30.6446 44.0034 30.6168 43.4786 31.1056 43.9062C31.3055 44.0812 32.9273 46.9749 33.3828 47.6026C42.8805 60.6189 53.2614 65.1872 65.6334 74.2267C88.1364 90.6672 92.4492 112.182 82.1822 137.909C86.97 147.565 89.4249 158.034 89.15 168.874C87.406 168.299 85.0399 166.727 83.3181 165.819H83.3208Z" fill="#9FC186"/>
<path d="M161.912 31.1287H161.635V86.9486H161.912V31.1287Z" fill="#477E44"/>
<path d="M134.697 70.5637C134.344 71.3024 134.166 76.3984 133.725 76.3984L130.809 70.5637H134.697Z" fill="#FDFDFD"/>
<path d="M79.4293 132.49L75.4913 125.464C66.6212 110.701 51.8748 100.132 45.2764 83.8938C48.2395 86.9625 50.8611 90.4367 53.741 93.6165C56.1432 96.2686 58.8592 98.7208 61.2475 101.384C69.3178 110.39 77.1215 120.266 79.4321 132.49H79.4293Z" fill="#FEFEFE"/>
</svg>
