<svg width="35" height="35" viewBox="0 0 35 35" fill="none" xmlns="http://www.w3.org/2000/svg">
<path d="M21.6126 1.45837H13.3876L12.444 6.179C11.6628 6.52909 10.92 6.95916 10.2274 7.46233L5.6628 5.91796L1.55176 13.0405L5.16988 16.2196C5.08251 17.071 5.08251 17.9291 5.16988 18.7805L1.55176 21.9596L5.66426 29.0821L10.2274 27.5392C10.9157 28.038 11.6565 28.4696 12.444 28.8211L13.3876 33.5417H21.6126L22.5561 28.8211C23.3374 28.471 24.0802 28.0409 24.7728 27.5377L29.3374 29.0821L33.4499 21.9596L29.8303 18.7805C29.9177 17.9291 29.9177 17.071 29.8303 16.2196L33.4484 13.0405L29.3359 5.91796L24.7743 7.46087C24.0816 6.95821 23.3388 6.52862 22.5576 6.179L21.6126 1.45837ZM17.5001 23.3334C15.953 23.3334 14.4693 22.7188 13.3753 21.6248C12.2813 20.5309 11.6668 19.0471 11.6668 17.5C11.6668 15.9529 12.2813 14.4692 13.3753 13.3753C14.4693 12.2813 15.953 11.6667 17.5001 11.6667C19.0472 11.6667 20.5309 12.2813 21.6249 13.3753C22.7188 14.4692 23.3334 15.9529 23.3334 17.5C23.3334 19.0471 22.7188 20.5309 21.6249 21.6248C20.5309 22.7188 19.0472 23.3334 17.5001 23.3334Z" fill="#5D5D5D"/>
</svg>
